<?xml version="1.0" standalone="no"?>
<!DOCTYPE svg PUBLIC "-//W3C//DTD SVG 20010904//EN"
 "http://www.w3.org/TR/2001/REC-SVG-20010904/DTD/svg10.dtd">
<svg version="1.0" xmlns="http://www.w3.org/2000/svg"
 width="200.000000pt" height="200.000000pt" viewBox="0 0 200.000000 200.000000"
 preserveAspectRatio="xMidYMid meet">
<metadata>
Created by potrace 1.16, written by Peter Selinger 2001-2019
</metadata>
<g transform="translate(0.000000,200.000000) scale(0.100000,-0.100000)"
fill="#000000" stroke="none">
<path d="M727 1632 c-37 -41 -3 -98 55 -94 17 1 35 -2 42 -7 14 -11 198 -90
238 -101 23 -7 30 -6 35 8 3 9 14 36 24 59 10 24 19 49 19 58 0 14 -35 29 -56
24 -5 -1 -39 12 -76 29 -37 18 -71 32 -76 32 -5 0 -14 -12 -21 -27 -11 -23
-10 -29 3 -39 32 -23 15 -22 -31 3 -27 13 -58 35 -71 49 -27 29 -63 31 -85 6z"/>
<path d="M1185 1623 c-11 -10 -15 -26 -12 -42 4 -18 -14 -71 -54 -165 -68
-158 -69 -149 24 -187 50 -20 60 -21 67 -9 14 21 12 57 -2 63 -8 3 -7 6 4 6 9
1 20 11 24 24 3 12 16 41 27 65 22 48 16 63 -27 65 -14 1 -26 3 -26 3 0 17 38
82 56 96 26 21 30 47 14 79 -13 24 -72 26 -95 2z"/>
<path d="M782 1488 c-20 -20 -14 -47 16 -63 l27 -15 -27 6 c-24 5 -28 1 -48
-43 -25 -57 -36 -103 -24 -104 5 0 19 -2 32 -5 14 -2 22 1 22 10 0 8 5 18 11
21 5 4 3 -10 -6 -32 -9 -21 -20 -47 -25 -58 -4 -11 -17 -29 -29 -39 -42 -38
-18 -99 39 -99 41 0 63 27 56 66 -4 21 9 65 49 161 30 72 55 137 55 143 0 6
-29 23 -65 37 -76 30 -68 29 -83 14z"/>
<path d="M903 1278 c-5 -7 -19 -39 -31 -70 -16 -43 -18 -59 -9 -65 19 -12 40
-13 54 -1 10 8 13 7 13 -3 0 -8 30 -27 67 -42 63 -26 69 -27 80 -10 7 9 13 25
13 35 0 22 0 22 50 2 22 -9 40 -22 40 -30 0 -15 30 -34 54 -34 25 0 46 30 46
65 0 39 -11 48 -60 51 -20 1 -56 11 -81 22 -24 11 -69 30 -99 42 -30 12 -70
28 -88 36 -40 17 -37 17 -49 2z"/>
<path d="M294 906 c-29 -29 -34 -41 -34 -80 0 -58 21 -101 60 -121 50 -26 129
-16 152 19 12 18 9 101 -4 114 -14 14 -76 16 -96 3 -21 -13 -10 -46 16 -49 29
-4 29 -32 0 -32 -29 0 -42 9 -57 38 -24 45 24 90 77 70 24 -9 34 -9 46 1 39
33 -3 71 -77 71 -42 0 -54 -5 -83 -34z"/>
<path d="M584 928 c-32 -52 -94 -195 -92 -212 5 -32 43 -33 64 -2 13 21 24 26
55 26 33 0 41 -5 51 -25 9 -20 18 -25 37 -23 41 5 37 37 -19 147 -37 76 -55
101 -70 101 -10 0 -22 -5 -26 -12z"/>
<path d="M745 928 c-3 -8 -4 -63 -3 -124 l3 -109 85 0 85 0 3 28 c3 27 2 27
-52 27 l-55 0 -3 93 -3 92 -28 3 c-16 2 -29 -2 -32 -10z"/>
<path d="M935 928 c-3 -8 -4 -63 -3 -124 l3 -109 85 0 85 0 3 28 c3 27 2 27
-52 27 l-55 0 -3 93 -3 92 -28 3 c-16 2 -29 -2 -32 -10z"/>
<path d="M1127 934 c-10 -10 -8 -216 1 -232 6 -9 33 -12 98 -10 l89 3 0 30 c0
30 0 30 -62 33 -71 3 -85 19 -20 24 39 3 42 5 45 36 3 32 3 32 -42 32 -69 0
-55 19 17 22 62 3 62 3 62 33 l0 30 -90 3 c-50 1 -94 0 -98 -4z"/>
<path d="M1334 927 c-2 -7 -3 -62 -2 -123 l3 -109 30 0 c27 0 30 4 33 33 4 44
33 43 55 -3 18 -37 45 -46 66 -21 9 11 9 22 -3 50 -9 21 -11 38 -5 41 5 4 9
26 9 51 0 34 -6 51 -25 69 -21 22 -33 25 -90 25 -45 0 -67 -4 -71 -13z"/>
<path d="M1532 928 c-18 -18 -16 -24 27 -87 28 -41 41 -71 43 -102 3 -38 6
-44 27 -47 29 -5 41 12 41 61 0 26 11 54 36 91 40 61 41 90 4 94 -21 2 -30 -5
-49 -38 -12 -22 -24 -40 -26 -40 -3 0 -17 18 -31 40 -27 41 -50 50 -72 28z"/>
</g>
</svg>
